<svg xmlns="http://www.w3.org/2000/svg" viewBox="0 0 268.44 242.82"><defs><style>.cls-1{fill:#5a5a5a;}</style></defs><title>Asset 1</title><g id="Layer_2" data-name="Layer 2"><g id="Layer_1-2" data-name="Layer 1"><g id="Layer_2-2" data-name="Layer 2"><g id="Layer_1-2-2" data-name="Layer 1-2"><path class="cls-1" d="M112.64,74c3.59-.34,6.51-1.2,9.19-.73,4.15.73,7.18,5,6,9-2.33,7.94.77,13.62,5.48,19.7,13.49,17.41,26.4,35.27,39.66,52.87.91,1.21,2.71,1.82,4.2,2.5a11.4,11.4,0,0,0,2.72.41c9.72,1.53,12.35,7.46,6.82,15.69,9,12,18,24.05,26.86,36.25,2.41,3.34,5,5.64,9.2,6.24a30,30,0,0,1,7,2.15c11.44,4.82,23.57,6.75,35.67,8.84.78.13,1.55.36,3,.7-1.38.61-2.12,1-2.92,1.28-9,3.1-17.89,6.52-27,9.18a46.07,46.07,0,0,1-31.86-1.77c-10.85-4.65-21.85-3.41-32.83-.41-3.06.83-6.08,1.77-9.08,2.82-12.59,4.42-25.34,5.52-38.37,2.14-3.5-.91-7.07-1.56-10.6-2.32l.16-1,8.2.72c16.25,1.41,31.39-1.68,45-11.07,1.68-1.16,3.47-2.19,5.1-3.43,9.5-7.25,20.29-10.42,32.15-10.29a10.51,10.51,0,0,0,1.48-.19c-.69-1-1.2-1.87-1.78-2.66-8-10.79-16-21.53-23.92-32.4a7.82,7.82,0,0,0-6-3.5c-12.82-1.51-25.64-3.07-38.4-5a17.53,17.53,0,0,1-8-3.5c-9.56-7.58-18.86-15.47-28.26-23.24-.76-.63-1.57-1.19-2.77-2.09-1.15,11-2.26,21.57-3.44,32.88,4,.19,7.9,1,11.59.44,7.09-1.09,12.86.72,18.62,4.94,13,9.48,26.25,18.57,40.81,25.59a32.82,32.82,0,0,1,5.71,3.59c5.09,3.88,5,7.74-.88,10.45A44.46,44.46,0,0,1,158,222.52c-14.56,1.78-29,.26-43.46-2C89.66,216.61,66.84,207.3,45,195c-11.73-6.61-24.31-11.7-36.51-17.48a45.86,45.86,0,0,1-4.65-2.33,7.71,7.71,0,0,1-3.74-7.85c.2-2.26,1.12-3.65,3.55-3.68.41,0,.82-.08,1.23-.07,12.11.33,24.15-.14,36-3.25a10.56,10.56,0,0,1,3.36-.25c4.37.23,8.39,1.15,10.56,5.87.85-8.08,1.72-16.15,2.55-24.23.68-6.62,1.28-13.25,2-19.87.5-4.7,3.48-7,8.29-6.44,8.55.92,17.1,2,25.67,2.69,4.25.35,8.55.06,13,.06,1.15-9.1,1.76-17.92,3.5-26.5,1.4-6.9-.45-12-4.83-17.21-6.26-7.39-11.72-15.36-17.4-23.14-1.13-1.54-2.19-2.38-4.25-2.15-4.5.51-8.16-1.28-11.19-4.61Q58.06,29.07,43.91,13.67c-1.9-2.07-3.19-4.26-2.09-7.2s3.28-3.67,6-4.1c4-.63,7.86-1.45,11.79-2.12,6.25-1,11.44,1,15.12,6C80.93,14.91,87,23.7,93,32.48c3,4.37,2.6,8.16-1.25,13.45Zm5.18,59.88c5.68,4.74,11.26,9.08,16.46,13.83,3.78,3.46,7.78,5.56,13,5.83,5.61.29,11.19,1.28,17.44,2l-39.55-53.15c-.85,8.15-1.61,15.38-2.34,22.6a11.11,11.11,0,0,1-5,8.92Z"/><path class="cls-1" d="M61,91.48a19.6,19.6,0,1,1,19.41,19.79h0A19.72,19.72,0,0,1,61,91.48Z"/></g></g></g></g></svg>